<?xml version="1.0" standalone="no"?>
<!DOCTYPE svg PUBLIC "-//W3C//DTD SVG 20010904//EN"
 "http://www.w3.org/TR/2001/REC-SVG-20010904/DTD/svg10.dtd">
<svg version="1.0" xmlns="http://www.w3.org/2000/svg"
 width="16.000000pt" height="16.000000pt" viewBox="0 0 16.000000 16.000000"
 preserveAspectRatio="xMidYMid meet">

<g transform="translate(0.000000,16.000000) scale(0.100000,-0.100000)"
fill="#000000" stroke="none">
<path d="M45 130 c-14 -6 -5 -9 35 -9 40 0 49 3 35 9 -11 5 -27 9 -35 9 -8 0
-24 -4 -35 -9z"/>
<path d="M32 58 l3 -43 45 0 45 0 3 43 3 42 -51 0 -51 0 3 -42z m78 2 c0 -23
-4 -26 -30 -26 -26 0 -30 3 -30 26 0 23 4 26 30 26 26 0 30 -3 30 -26z"/>
</g>
</svg>
