<?xml version="1.0" standalone="no"?>
<!DOCTYPE svg PUBLIC "-//W3C//DTD SVG 20010904//EN"
 "http://www.w3.org/TR/2001/REC-SVG-20010904/DTD/svg10.dtd">
<svg version="1.0" xmlns="http://www.w3.org/2000/svg"
 width="32.000000pt" height="32.000000pt" viewBox="0 0 32.000000 32.000000"
 preserveAspectRatio="xMidYMid meet">

<g transform="translate(0.000000,32.000000) scale(0.100000,-0.100000)"
fill="#000000" stroke="none">
<path d="M35 285 c-23 -22 -25 -31 -25 -125 0 -94 2 -103 25 -125 22 -23 32
-25 115 -25 53 0 90 4 90 10 0 6 -35 10 -85 10 -117 0 -125 9 -125 130 0 77 3
93 20 110 17 17 33 20 110 20 121 0 130 -8 130 -125 0 -50 4 -85 10 -85 6 0
10 37 10 90 0 83 -2 93 -25 115 -22 23 -31 25 -125 25 -94 0 -103 -2 -125 -25z"/>
<path d="M85 235 c-38 -37 -35 -95 6 -129 31 -27 72 -33 99 -16 11 7 27 -2 62
-37 26 -26 51 -44 55 -40 4 4 -14 29 -40 55 -35 35 -44 51 -37 62 17 27 11 68
-16 99 -34 41 -92 44 -129 6z m115 -15 c27 -27 25 -66 -5 -95 -29 -30 -68 -32
-95 -5 -24 24 -26 77 -3 102 22 24 77 24 103 -2z"/>
</g>
</svg>
