<?xml version="1.0" encoding="UTF-8"?>
<svg version="1.1" xmlns="http://www.w3.org/2000/svg" width="32" height="32">
<path d="M0 0 C1.98 0 3.96 0 6 0 C6.33 0.99 6.66 1.98 7 3 C8.65 3 10.3 3 12 3 C12.66 4.32 13.32 5.64 14 7 C14.99 7 15.98 7 17 7 C17 8.32 17 9.64 17 11 C16.01 11 15.02 11 14 11 C13.67 17.27 13.34 23.54 13 30 C6.4 30 -0.2 30 -7 30 C-7.33 23.73 -7.66 17.46 -8 11 C-8.99 11 -9.98 11 -11 11 C-11 9.68 -11 8.36 -11 7 C-10.01 7 -9.02 7 -8 7 C-7.34 5.68 -6.68 4.36 -6 3 C-4.35 3 -2.7 3 -1 3 C-0.67 2.01 -0.34 1.02 0 0 Z " fill="#5979DD" transform="translate(13,1)"/>
<path d="M0 0 C2.64 0 5.28 0 8 0 C7.01 0.33 6.02 0.66 5 1 C5.33 4.96 5.66 8.92 6 13 C9.63 13 13.26 13 17 13 C17 8.71 17 4.42 17 0 C18.65 0 20.3 0 22 0 C21.67 6.27 21.34 12.54 21 19 C14.4 19 7.8 19 1 19 C0.67 12.73 0.34 6.46 0 0 Z " fill="#3747D6" transform="translate(5,12)"/>
<path d="M0 0 C1.98 0 3.96 0 6 0 C6.33 0.99 6.66 1.98 7 3 C7.78375 2.95875 8.5675 2.9175 9.375 2.875 C12 3 12 3 14 5 C14 5.99 14 6.98 14 8 C6.74 8 -0.52 8 -8 8 C-7 4 -7 4 -6 3 C-4.33382885 2.95936168 -2.66611905 2.957279 -1 3 C-0.67 2.01 -0.34 1.02 0 0 Z " fill="#3E51D6" transform="translate(13,1)"/>
<path d="M0 0 C9.24 0 18.48 0 28 0 C28 1.32 28 2.64 28 4 C18.76 4 9.52 4 0 4 C0 2.68 0 1.36 0 0 Z " fill="#90C9EA" transform="translate(2,8)"/>
<path d="M0 0 C0.99 0 1.98 0 3 0 C3 3.96 3 7.92 3 12 C2.01 12 1.02 12 0 12 C0 8.04 0 4.08 0 0 Z " fill="#81B5E6" transform="translate(19,13)"/>
<path d="M0 0 C0.99 0 1.98 0 3 0 C3 3.96 3 7.92 3 12 C2.01 12 1.02 12 0 12 C0 8.04 0 4.08 0 0 Z " fill="#81B5E6" transform="translate(10,13)"/>
<path d="M0 0 C1.98 0 3.96 0 6 0 C6.33 1.32 6.66 2.64 7 4 C4.36 4 1.72 4 -1 4 C-0.67 2.68 -0.34 1.36 0 0 Z " fill="#8AC4E9" transform="translate(13,1)"/>
</svg>
